<mxfile host="app.diagrams.net" agent="Mozilla/5.0 (Macintosh; Intel Mac OS X 10_15_7) AppleWebKit/605.1.15 (KHTML, like Gecko) Version/17.6 Safari/605.1.15" version="24.7.12">
  <diagram name="Страница — 1" id="_R4lYj8lv3AxTXjf9ZBw">
    <mxGraphModel dx="2288" dy="973" grid="0" gridSize="10" guides="1" tooltips="1" connect="1" arrows="1" fold="1" page="1" pageScale="1" pageWidth="827" pageHeight="1169" math="0" shadow="0">
      <root>
        <mxCell id="0" />
        <mxCell id="1" parent="0" />
        <mxCell id="WlQoKTJH4L9Nlq2DW2aS-11" value="Клиент" style="whiteSpace=wrap;html=1;align=center;" parent="1" vertex="1">
          <mxGeometry x="-380" y="190" width="100" height="40" as="geometry" />
        </mxCell>
        <mxCell id="WlQoKTJH4L9Nlq2DW2aS-12" value="Client_id" style="ellipse;whiteSpace=wrap;html=1;align=center;fontStyle=4;" parent="1" vertex="1">
          <mxGeometry x="-580" y="40" width="100" height="40" as="geometry" />
        </mxCell>
        <mxCell id="WlQoKTJH4L9Nlq2DW2aS-13" value="Имя" style="ellipse;whiteSpace=wrap;html=1;align=center;" parent="1" vertex="1">
          <mxGeometry x="-580" y="100" width="100" height="40" as="geometry" />
        </mxCell>
        <mxCell id="WlQoKTJH4L9Nlq2DW2aS-14" value="Телефон" style="ellipse;whiteSpace=wrap;html=1;align=center;" parent="1" vertex="1">
          <mxGeometry x="-580" y="160" width="100" height="40" as="geometry" />
        </mxCell>
        <mxCell id="WlQoKTJH4L9Nlq2DW2aS-15" value="e-mail" style="ellipse;whiteSpace=wrap;html=1;align=center;" parent="1" vertex="1">
          <mxGeometry x="-580" y="220" width="100" height="40" as="geometry" />
        </mxCell>
        <mxCell id="WlQoKTJH4L9Nlq2DW2aS-16" value="Дата рождения" style="ellipse;whiteSpace=wrap;html=1;align=center;" parent="1" vertex="1">
          <mxGeometry x="-580" y="280" width="100" height="40" as="geometry" />
        </mxCell>
        <mxCell id="WlQoKTJH4L9Nlq2DW2aS-18" value="" style="endArrow=none;html=1;rounded=0;" parent="1" edge="1">
          <mxGeometry width="50" height="50" relative="1" as="geometry">
            <mxPoint x="-478" y="60" as="sourcePoint" />
            <mxPoint x="-430" y="360" as="targetPoint" />
            <Array as="points">
              <mxPoint x="-430" y="60" />
            </Array>
          </mxGeometry>
        </mxCell>
        <mxCell id="WlQoKTJH4L9Nlq2DW2aS-20" value="" style="endArrow=none;html=1;rounded=0;exitX=1;exitY=0.5;exitDx=0;exitDy=0;" parent="1" source="WlQoKTJH4L9Nlq2DW2aS-13" edge="1">
          <mxGeometry width="50" height="50" relative="1" as="geometry">
            <mxPoint x="-460" y="145" as="sourcePoint" />
            <mxPoint x="-430" y="120" as="targetPoint" />
          </mxGeometry>
        </mxCell>
        <mxCell id="WlQoKTJH4L9Nlq2DW2aS-21" value="" style="endArrow=none;html=1;rounded=0;exitX=1;exitY=0.5;exitDx=0;exitDy=0;" parent="1" source="WlQoKTJH4L9Nlq2DW2aS-14" edge="1">
          <mxGeometry width="50" height="50" relative="1" as="geometry">
            <mxPoint x="-300" y="290" as="sourcePoint" />
            <mxPoint x="-430" y="180" as="targetPoint" />
          </mxGeometry>
        </mxCell>
        <mxCell id="WlQoKTJH4L9Nlq2DW2aS-22" value="" style="endArrow=none;html=1;rounded=0;exitX=1;exitY=0.5;exitDx=0;exitDy=0;" parent="1" source="WlQoKTJH4L9Nlq2DW2aS-15" edge="1">
          <mxGeometry width="50" height="50" relative="1" as="geometry">
            <mxPoint x="-300" y="290" as="sourcePoint" />
            <mxPoint x="-430" y="240" as="targetPoint" />
          </mxGeometry>
        </mxCell>
        <mxCell id="WlQoKTJH4L9Nlq2DW2aS-26" value="" style="line;strokeWidth=1;rotatable=0;dashed=0;labelPosition=right;align=left;verticalAlign=middle;spacingTop=0;spacingLeft=6;points=[];portConstraint=eastwest;" parent="1" vertex="1">
          <mxGeometry x="-480" y="295" width="50" height="10" as="geometry" />
        </mxCell>
        <mxCell id="WlQoKTJH4L9Nlq2DW2aS-27" value="" style="line;strokeWidth=1;rotatable=0;dashed=0;labelPosition=right;align=left;verticalAlign=middle;spacingTop=0;spacingLeft=6;points=[];portConstraint=eastwest;" parent="1" vertex="1">
          <mxGeometry x="-480" y="355" width="50" height="10" as="geometry" />
        </mxCell>
        <mxCell id="WlQoKTJH4L9Nlq2DW2aS-28" value="" style="endArrow=none;html=1;rounded=0;" parent="1" edge="1">
          <mxGeometry relative="1" as="geometry">
            <mxPoint x="-430" y="209.5" as="sourcePoint" />
            <mxPoint x="-380" y="210" as="targetPoint" />
          </mxGeometry>
        </mxCell>
        <mxCell id="WlQoKTJH4L9Nlq2DW2aS-29" value="Заказ" style="whiteSpace=wrap;html=1;align=center;" parent="1" vertex="1">
          <mxGeometry x="-380" y="590" width="100" height="40" as="geometry" />
        </mxCell>
        <mxCell id="WlQoKTJH4L9Nlq2DW2aS-30" value="Order_id" style="ellipse;whiteSpace=wrap;html=1;align=center;fontStyle=4;" parent="1" vertex="1">
          <mxGeometry x="-580" y="430" width="100" height="40" as="geometry" />
        </mxCell>
        <mxCell id="WlQoKTJH4L9Nlq2DW2aS-31" value="Дата и время&amp;nbsp;&lt;div&gt;приема&lt;/div&gt;" style="ellipse;whiteSpace=wrap;html=1;align=center;" parent="1" vertex="1">
          <mxGeometry x="-580" y="490" width="100" height="40" as="geometry" />
        </mxCell>
        <mxCell id="WlQoKTJH4L9Nlq2DW2aS-32" value="Дата и время&lt;div&gt;исполнения&lt;/div&gt;" style="ellipse;whiteSpace=wrap;html=1;align=center;" parent="1" vertex="1">
          <mxGeometry x="-580" y="554.5" width="100" height="40" as="geometry" />
        </mxCell>
        <mxCell id="WlQoKTJH4L9Nlq2DW2aS-33" value="Тип доставки" style="ellipse;whiteSpace=wrap;html=1;align=center;" parent="1" vertex="1">
          <mxGeometry x="-580" y="620" width="100" height="40" as="geometry" />
        </mxCell>
        <mxCell id="WlQoKTJH4L9Nlq2DW2aS-34" value="Клиент" style="ellipse;whiteSpace=wrap;html=1;align=center;" parent="1" vertex="1">
          <mxGeometry x="-580" y="680" width="100" height="40" as="geometry" />
        </mxCell>
        <mxCell id="WlQoKTJH4L9Nlq2DW2aS-35" value="Пиццерия" style="ellipse;whiteSpace=wrap;html=1;align=center;" parent="1" vertex="1">
          <mxGeometry x="-580" y="740" width="100" height="40" as="geometry" />
        </mxCell>
        <mxCell id="WlQoKTJH4L9Nlq2DW2aS-36" value="" style="endArrow=none;html=1;rounded=0;" parent="1" edge="1">
          <mxGeometry relative="1" as="geometry">
            <mxPoint x="-480" y="449.5" as="sourcePoint" />
            <mxPoint x="-430" y="450" as="targetPoint" />
          </mxGeometry>
        </mxCell>
        <mxCell id="WlQoKTJH4L9Nlq2DW2aS-37" value="" style="line;strokeWidth=1;rotatable=0;dashed=0;labelPosition=right;align=left;verticalAlign=middle;spacingTop=0;spacingLeft=6;points=[];portConstraint=eastwest;" parent="1" vertex="1">
          <mxGeometry x="-480" y="505" width="50" height="10" as="geometry" />
        </mxCell>
        <mxCell id="WlQoKTJH4L9Nlq2DW2aS-38" value="" style="line;strokeWidth=1;rotatable=0;dashed=0;labelPosition=right;align=left;verticalAlign=middle;spacingTop=0;spacingLeft=6;points=[];portConstraint=eastwest;" parent="1" vertex="1">
          <mxGeometry x="-480" y="569.5" width="50" height="10" as="geometry" />
        </mxCell>
        <mxCell id="WlQoKTJH4L9Nlq2DW2aS-39" value="" style="endArrow=none;html=1;rounded=0;" parent="1" edge="1">
          <mxGeometry relative="1" as="geometry">
            <mxPoint x="-480" y="639.66" as="sourcePoint" />
            <mxPoint x="-430" y="640" as="targetPoint" />
          </mxGeometry>
        </mxCell>
        <mxCell id="WlQoKTJH4L9Nlq2DW2aS-40" value="" style="endArrow=none;html=1;rounded=0;" parent="1" edge="1">
          <mxGeometry relative="1" as="geometry">
            <mxPoint x="-480" y="699.66" as="sourcePoint" />
            <mxPoint x="-430" y="700" as="targetPoint" />
          </mxGeometry>
        </mxCell>
        <mxCell id="WlQoKTJH4L9Nlq2DW2aS-41" value="" style="endArrow=none;html=1;rounded=0;" parent="1" edge="1">
          <mxGeometry relative="1" as="geometry">
            <mxPoint x="-480" y="759.66" as="sourcePoint" />
            <mxPoint x="-430" y="760" as="targetPoint" />
          </mxGeometry>
        </mxCell>
        <mxCell id="WlQoKTJH4L9Nlq2DW2aS-42" value="" style="endArrow=none;html=1;rounded=0;" parent="1" edge="1">
          <mxGeometry relative="1" as="geometry">
            <mxPoint x="-430" y="450" as="sourcePoint" />
            <mxPoint x="-430" y="760" as="targetPoint" />
          </mxGeometry>
        </mxCell>
        <mxCell id="WlQoKTJH4L9Nlq2DW2aS-43" value="" style="endArrow=none;html=1;rounded=0;" parent="1" edge="1">
          <mxGeometry relative="1" as="geometry">
            <mxPoint x="-430" y="610" as="sourcePoint" />
            <mxPoint x="-380" y="610" as="targetPoint" />
          </mxGeometry>
        </mxCell>
        <mxCell id="WlQoKTJH4L9Nlq2DW2aS-44" value="Делает заказ" style="shape=rhombus;perimeter=rhombusPerimeter;whiteSpace=wrap;html=1;align=center;" parent="1" vertex="1">
          <mxGeometry x="-390" y="380" width="120" height="60" as="geometry" />
        </mxCell>
        <mxCell id="WlQoKTJH4L9Nlq2DW2aS-45" value="" style="endArrow=none;html=1;rounded=0;entryX=0.5;entryY=1;entryDx=0;entryDy=0;" parent="1" source="WlQoKTJH4L9Nlq2DW2aS-44" target="WlQoKTJH4L9Nlq2DW2aS-11" edge="1">
          <mxGeometry relative="1" as="geometry">
            <mxPoint x="-410" y="430" as="sourcePoint" />
            <mxPoint x="-250" y="430" as="targetPoint" />
          </mxGeometry>
        </mxCell>
        <mxCell id="WlQoKTJH4L9Nlq2DW2aS-46" value="0,N" style="resizable=0;html=1;whiteSpace=wrap;align=right;verticalAlign=bottom;" parent="WlQoKTJH4L9Nlq2DW2aS-45" connectable="0" vertex="1">
          <mxGeometry x="1" relative="1" as="geometry">
            <mxPoint x="-10" y="30" as="offset" />
          </mxGeometry>
        </mxCell>
        <mxCell id="WlQoKTJH4L9Nlq2DW2aS-47" value="" style="endArrow=none;html=1;rounded=0;exitX=0.5;exitY=1;exitDx=0;exitDy=0;entryX=0.5;entryY=0;entryDx=0;entryDy=0;" parent="1" source="WlQoKTJH4L9Nlq2DW2aS-44" target="WlQoKTJH4L9Nlq2DW2aS-29" edge="1">
          <mxGeometry relative="1" as="geometry">
            <mxPoint x="-410" y="430" as="sourcePoint" />
            <mxPoint x="-250" y="430" as="targetPoint" />
          </mxGeometry>
        </mxCell>
        <mxCell id="WlQoKTJH4L9Nlq2DW2aS-48" value="1,1" style="resizable=0;html=1;whiteSpace=wrap;align=right;verticalAlign=bottom;" parent="WlQoKTJH4L9Nlq2DW2aS-47" connectable="0" vertex="1">
          <mxGeometry x="1" relative="1" as="geometry">
            <mxPoint x="-10" y="-10" as="offset" />
          </mxGeometry>
        </mxCell>
        <mxCell id="WlQoKTJH4L9Nlq2DW2aS-50" value="Пиццерия" style="whiteSpace=wrap;html=1;align=center;" parent="1" vertex="1">
          <mxGeometry x="-380" y="920" width="100" height="40" as="geometry" />
        </mxCell>
        <mxCell id="WlQoKTJH4L9Nlq2DW2aS-51" value="Pizzeria_id" style="ellipse;whiteSpace=wrap;html=1;align=center;fontStyle=4;" parent="1" vertex="1">
          <mxGeometry x="-580" y="830" width="100" height="40" as="geometry" />
        </mxCell>
        <mxCell id="WlQoKTJH4L9Nlq2DW2aS-62" value="Город" style="ellipse;whiteSpace=wrap;html=1;align=center;" parent="1" vertex="1">
          <mxGeometry x="-760" y="830" width="100" height="40" as="geometry" />
        </mxCell>
        <mxCell id="WlQoKTJH4L9Nlq2DW2aS-63" value="Улица" style="ellipse;whiteSpace=wrap;html=1;align=center;" parent="1" vertex="1">
          <mxGeometry x="-760" y="890" width="100" height="40" as="geometry" />
        </mxCell>
        <mxCell id="WlQoKTJH4L9Nlq2DW2aS-64" value="Дом" style="ellipse;whiteSpace=wrap;html=1;align=center;" parent="1" vertex="1">
          <mxGeometry x="-760" y="950" width="100" height="40" as="geometry" />
        </mxCell>
        <mxCell id="WlQoKTJH4L9Nlq2DW2aS-65" value="" style="endArrow=none;html=1;rounded=0;" parent="1" edge="1">
          <mxGeometry relative="1" as="geometry">
            <mxPoint x="-660" y="849.5" as="sourcePoint" />
            <mxPoint x="-620" y="850" as="targetPoint" />
          </mxGeometry>
        </mxCell>
        <mxCell id="WlQoKTJH4L9Nlq2DW2aS-66" value="" style="endArrow=none;html=1;rounded=0;" parent="1" edge="1">
          <mxGeometry relative="1" as="geometry">
            <mxPoint x="-660" y="909.5" as="sourcePoint" />
            <mxPoint x="-620" y="910" as="targetPoint" />
          </mxGeometry>
        </mxCell>
        <mxCell id="WlQoKTJH4L9Nlq2DW2aS-67" value="" style="endArrow=none;html=1;rounded=0;" parent="1" edge="1">
          <mxGeometry relative="1" as="geometry">
            <mxPoint x="-660" y="969.5" as="sourcePoint" />
            <mxPoint x="-620" y="970" as="targetPoint" />
          </mxGeometry>
        </mxCell>
        <mxCell id="WlQoKTJH4L9Nlq2DW2aS-68" value="" style="endArrow=none;html=1;rounded=0;" parent="1" edge="1">
          <mxGeometry relative="1" as="geometry">
            <mxPoint x="-620" y="850" as="sourcePoint" />
            <mxPoint x="-620" y="970" as="targetPoint" />
          </mxGeometry>
        </mxCell>
        <mxCell id="WlQoKTJH4L9Nlq2DW2aS-69" value="Адрес" style="ellipse;whiteSpace=wrap;html=1;align=center;" parent="1" vertex="1">
          <mxGeometry x="-580" y="890" width="100" height="40" as="geometry" />
        </mxCell>
        <mxCell id="WlQoKTJH4L9Nlq2DW2aS-70" value="" style="endArrow=none;html=1;rounded=0;entryX=0;entryY=0.5;entryDx=0;entryDy=0;" parent="1" edge="1">
          <mxGeometry relative="1" as="geometry">
            <mxPoint x="-620" y="909.5" as="sourcePoint" />
            <mxPoint x="-580" y="909.5" as="targetPoint" />
          </mxGeometry>
        </mxCell>
        <mxCell id="WlQoKTJH4L9Nlq2DW2aS-71" value="Телефон" style="ellipse;whiteSpace=wrap;html=1;align=center;" parent="1" vertex="1">
          <mxGeometry x="-580" y="950" width="100" height="40" as="geometry" />
        </mxCell>
        <mxCell id="WlQoKTJH4L9Nlq2DW2aS-72" value="Время работы" style="ellipse;whiteSpace=wrap;html=1;align=center;" parent="1" vertex="1">
          <mxGeometry x="-580" y="1010" width="100" height="40" as="geometry" />
        </mxCell>
        <mxCell id="WlQoKTJH4L9Nlq2DW2aS-73" value="Адрес доставки" style="ellipse;shape=doubleEllipse;margin=3;whiteSpace=wrap;html=1;align=center;" parent="1" vertex="1">
          <mxGeometry x="-580" y="340" width="100" height="40" as="geometry" />
        </mxCell>
        <mxCell id="WlQoKTJH4L9Nlq2DW2aS-74" value="" style="line;strokeWidth=1;rotatable=0;dashed=0;labelPosition=right;align=left;verticalAlign=middle;spacingTop=0;spacingLeft=6;points=[];portConstraint=eastwest;" parent="1" vertex="1">
          <mxGeometry x="-480" y="845" width="50" height="10" as="geometry" />
        </mxCell>
        <mxCell id="WlQoKTJH4L9Nlq2DW2aS-75" value="" style="line;strokeWidth=1;rotatable=0;dashed=0;labelPosition=right;align=left;verticalAlign=middle;spacingTop=0;spacingLeft=6;points=[];portConstraint=eastwest;" parent="1" vertex="1">
          <mxGeometry x="-480" y="905" width="50" height="10" as="geometry" />
        </mxCell>
        <mxCell id="WlQoKTJH4L9Nlq2DW2aS-76" value="" style="line;strokeWidth=1;rotatable=0;dashed=0;labelPosition=right;align=left;verticalAlign=middle;spacingTop=0;spacingLeft=6;points=[];portConstraint=eastwest;" parent="1" vertex="1">
          <mxGeometry x="-480" y="965" width="50" height="10" as="geometry" />
        </mxCell>
        <mxCell id="WlQoKTJH4L9Nlq2DW2aS-77" value="" style="line;strokeWidth=1;rotatable=0;dashed=0;labelPosition=right;align=left;verticalAlign=middle;spacingTop=0;spacingLeft=6;points=[];portConstraint=eastwest;" parent="1" vertex="1">
          <mxGeometry x="-480" y="1025" width="50" height="10" as="geometry" />
        </mxCell>
        <mxCell id="WlQoKTJH4L9Nlq2DW2aS-78" value="" style="endArrow=none;html=1;rounded=0;" parent="1" edge="1">
          <mxGeometry relative="1" as="geometry">
            <mxPoint x="-430.83" y="850" as="sourcePoint" />
            <mxPoint x="-431" y="1030" as="targetPoint" />
          </mxGeometry>
        </mxCell>
        <mxCell id="WlQoKTJH4L9Nlq2DW2aS-79" value="" style="line;strokeWidth=1;rotatable=0;dashed=0;labelPosition=right;align=left;verticalAlign=middle;spacingTop=0;spacingLeft=6;points=[];portConstraint=eastwest;" parent="1" vertex="1">
          <mxGeometry x="-430" y="935" width="50" height="10" as="geometry" />
        </mxCell>
        <mxCell id="WlQoKTJH4L9Nlq2DW2aS-80" value="Выполняет заказ" style="shape=rhombus;perimeter=rhombusPerimeter;whiteSpace=wrap;html=1;align=center;" parent="1" vertex="1">
          <mxGeometry x="-390" y="770" width="120" height="60" as="geometry" />
        </mxCell>
        <mxCell id="WlQoKTJH4L9Nlq2DW2aS-83" value="" style="endArrow=none;html=1;rounded=0;exitX=0.5;exitY=1;exitDx=0;exitDy=0;" parent="1" edge="1">
          <mxGeometry relative="1" as="geometry">
            <mxPoint x="-330.42" y="630" as="sourcePoint" />
            <mxPoint x="-330" y="770" as="targetPoint" />
          </mxGeometry>
        </mxCell>
        <mxCell id="WlQoKTJH4L9Nlq2DW2aS-84" value="1,1" style="resizable=0;html=1;whiteSpace=wrap;align=right;verticalAlign=bottom;" parent="WlQoKTJH4L9Nlq2DW2aS-83" connectable="0" vertex="1">
          <mxGeometry x="1" relative="1" as="geometry">
            <mxPoint x="-10" y="-120" as="offset" />
          </mxGeometry>
        </mxCell>
        <mxCell id="WlQoKTJH4L9Nlq2DW2aS-85" value="" style="endArrow=none;html=1;rounded=0;entryX=0.5;entryY=1;entryDx=0;entryDy=0;" parent="1" edge="1">
          <mxGeometry relative="1" as="geometry">
            <mxPoint x="-330" y="920" as="sourcePoint" />
            <mxPoint x="-330.5" y="830" as="targetPoint" />
          </mxGeometry>
        </mxCell>
        <mxCell id="WlQoKTJH4L9Nlq2DW2aS-86" value="0,N" style="resizable=0;html=1;whiteSpace=wrap;align=right;verticalAlign=bottom;" parent="WlQoKTJH4L9Nlq2DW2aS-85" connectable="0" vertex="1">
          <mxGeometry x="1" relative="1" as="geometry">
            <mxPoint x="-9" y="85" as="offset" />
          </mxGeometry>
        </mxCell>
        <mxCell id="WlQoKTJH4L9Nlq2DW2aS-87" value="Работник" style="whiteSpace=wrap;html=1;align=center;" parent="1" vertex="1">
          <mxGeometry x="-40" y="920" width="100" height="40" as="geometry" />
        </mxCell>
        <mxCell id="WlQoKTJH4L9Nlq2DW2aS-88" value="ФИО" style="ellipse;whiteSpace=wrap;html=1;align=center;" parent="1" vertex="1">
          <mxGeometry x="150" y="830" width="100" height="40" as="geometry" />
        </mxCell>
        <mxCell id="WlQoKTJH4L9Nlq2DW2aS-89" value="Фамилия" style="ellipse;whiteSpace=wrap;html=1;align=center;" parent="1" vertex="1">
          <mxGeometry x="340" y="772.5" width="100" height="40" as="geometry" />
        </mxCell>
        <mxCell id="WlQoKTJH4L9Nlq2DW2aS-90" value="Имя" style="ellipse;whiteSpace=wrap;html=1;align=center;" parent="1" vertex="1">
          <mxGeometry x="340" y="830" width="100" height="40" as="geometry" />
        </mxCell>
        <mxCell id="WlQoKTJH4L9Nlq2DW2aS-91" value="Отчество" style="ellipse;whiteSpace=wrap;html=1;align=center;" parent="1" vertex="1">
          <mxGeometry x="340" y="887.5" width="100" height="40" as="geometry" />
        </mxCell>
        <mxCell id="WlQoKTJH4L9Nlq2DW2aS-92" value="Должность" style="ellipse;whiteSpace=wrap;html=1;align=center;" parent="1" vertex="1">
          <mxGeometry x="150" y="890" width="100" height="40" as="geometry" />
        </mxCell>
        <mxCell id="WlQoKTJH4L9Nlq2DW2aS-93" value="Телефон" style="ellipse;whiteSpace=wrap;html=1;align=center;" parent="1" vertex="1">
          <mxGeometry x="150" y="950" width="100" height="40" as="geometry" />
        </mxCell>
        <mxCell id="WlQoKTJH4L9Nlq2DW2aS-94" value="Employee_id" style="ellipse;whiteSpace=wrap;html=1;align=center;fontStyle=4;" parent="1" vertex="1">
          <mxGeometry x="150" y="1010" width="100" height="40" as="geometry" />
        </mxCell>
        <mxCell id="WlQoKTJH4L9Nlq2DW2aS-95" value="" style="line;strokeWidth=1;rotatable=0;dashed=0;labelPosition=right;align=left;verticalAlign=middle;spacingTop=0;spacingLeft=6;points=[];portConstraint=eastwest;" parent="1" vertex="1">
          <mxGeometry x="100" y="845" width="50" height="10" as="geometry" />
        </mxCell>
        <mxCell id="WlQoKTJH4L9Nlq2DW2aS-96" value="" style="line;strokeWidth=1;rotatable=0;dashed=0;labelPosition=right;align=left;verticalAlign=middle;spacingTop=0;spacingLeft=6;points=[];portConstraint=eastwest;" parent="1" vertex="1">
          <mxGeometry x="100" y="905" width="50" height="10" as="geometry" />
        </mxCell>
        <mxCell id="WlQoKTJH4L9Nlq2DW2aS-97" value="" style="line;strokeWidth=1;rotatable=0;dashed=0;labelPosition=right;align=left;verticalAlign=middle;spacingTop=0;spacingLeft=6;points=[];portConstraint=eastwest;" parent="1" vertex="1">
          <mxGeometry x="100" y="965" width="50" height="10" as="geometry" />
        </mxCell>
        <mxCell id="WlQoKTJH4L9Nlq2DW2aS-98" value="" style="line;strokeWidth=1;rotatable=0;dashed=0;labelPosition=right;align=left;verticalAlign=middle;spacingTop=0;spacingLeft=6;points=[];portConstraint=eastwest;" parent="1" vertex="1">
          <mxGeometry x="100" y="1025" width="50" height="10" as="geometry" />
        </mxCell>
        <mxCell id="WlQoKTJH4L9Nlq2DW2aS-99" value="" style="endArrow=none;html=1;rounded=0;" parent="1" edge="1">
          <mxGeometry relative="1" as="geometry">
            <mxPoint x="99.17000000000002" y="850" as="sourcePoint" />
            <mxPoint x="99" y="1030" as="targetPoint" />
          </mxGeometry>
        </mxCell>
        <mxCell id="WlQoKTJH4L9Nlq2DW2aS-100" value="" style="line;strokeWidth=1;rotatable=0;dashed=0;labelPosition=right;align=left;verticalAlign=middle;spacingTop=0;spacingLeft=6;points=[];portConstraint=eastwest;" parent="1" vertex="1">
          <mxGeometry x="60" y="935" width="40" height="10" as="geometry" />
        </mxCell>
        <mxCell id="WlQoKTJH4L9Nlq2DW2aS-101" value="" style="endArrow=none;html=1;rounded=0;" parent="1" edge="1">
          <mxGeometry relative="1" as="geometry">
            <mxPoint x="300" y="792" as="sourcePoint" />
            <mxPoint x="340" y="792.5" as="targetPoint" />
          </mxGeometry>
        </mxCell>
        <mxCell id="WlQoKTJH4L9Nlq2DW2aS-103" value="" style="endArrow=none;html=1;rounded=0;" parent="1" edge="1">
          <mxGeometry relative="1" as="geometry">
            <mxPoint x="300" y="907" as="sourcePoint" />
            <mxPoint x="340" y="907.5" as="targetPoint" />
          </mxGeometry>
        </mxCell>
        <mxCell id="WlQoKTJH4L9Nlq2DW2aS-104" value="" style="endArrow=none;html=1;rounded=0;" parent="1" edge="1">
          <mxGeometry relative="1" as="geometry">
            <mxPoint x="300" y="790" as="sourcePoint" />
            <mxPoint x="300" y="910" as="targetPoint" />
          </mxGeometry>
        </mxCell>
        <mxCell id="WlQoKTJH4L9Nlq2DW2aS-107" value="" style="endArrow=none;html=1;rounded=0;entryX=0;entryY=0.5;entryDx=0;entryDy=0;" parent="1" target="WlQoKTJH4L9Nlq2DW2aS-90" edge="1">
          <mxGeometry relative="1" as="geometry">
            <mxPoint x="250" y="849.75" as="sourcePoint" />
            <mxPoint x="290" y="850.25" as="targetPoint" />
          </mxGeometry>
        </mxCell>
        <mxCell id="WlQoKTJH4L9Nlq2DW2aS-108" value="Работает" style="shape=rhombus;perimeter=rhombusPerimeter;whiteSpace=wrap;html=1;align=center;" parent="1" vertex="1">
          <mxGeometry x="-220" y="910" width="120" height="60" as="geometry" />
        </mxCell>
        <mxCell id="WlQoKTJH4L9Nlq2DW2aS-109" value="" style="endArrow=none;html=1;rounded=0;" parent="1" edge="1">
          <mxGeometry relative="1" as="geometry">
            <mxPoint x="-280" y="940" as="sourcePoint" />
            <mxPoint x="-220" y="939.58" as="targetPoint" />
          </mxGeometry>
        </mxCell>
        <mxCell id="WlQoKTJH4L9Nlq2DW2aS-110" value="1,M" style="resizable=0;html=1;whiteSpace=wrap;align=right;verticalAlign=bottom;" parent="WlQoKTJH4L9Nlq2DW2aS-109" connectable="0" vertex="1">
          <mxGeometry x="1" relative="1" as="geometry">
            <mxPoint x="-30" as="offset" />
          </mxGeometry>
        </mxCell>
        <mxCell id="WlQoKTJH4L9Nlq2DW2aS-111" value="" style="endArrow=none;html=1;rounded=0;" parent="1" edge="1">
          <mxGeometry relative="1" as="geometry">
            <mxPoint x="-100" y="940" as="sourcePoint" />
            <mxPoint x="-40" y="939.58" as="targetPoint" />
          </mxGeometry>
        </mxCell>
        <mxCell id="WlQoKTJH4L9Nlq2DW2aS-112" value="1,N" style="resizable=0;html=1;whiteSpace=wrap;align=right;verticalAlign=bottom;" parent="WlQoKTJH4L9Nlq2DW2aS-111" connectable="0" vertex="1">
          <mxGeometry x="1" relative="1" as="geometry">
            <mxPoint x="-10" as="offset" />
          </mxGeometry>
        </mxCell>
        <mxCell id="WlQoKTJH4L9Nlq2DW2aS-113" value="Включает в&amp;nbsp;&lt;div&gt;себя&lt;/div&gt;" style="shape=rhombus;perimeter=rhombusPerimeter;whiteSpace=wrap;html=1;align=center;" parent="1" vertex="1">
          <mxGeometry x="-180" y="579.5" width="120" height="60" as="geometry" />
        </mxCell>
        <mxCell id="WlQoKTJH4L9Nlq2DW2aS-115" value="Пицца" style="whiteSpace=wrap;html=1;align=center;" parent="1" vertex="1">
          <mxGeometry x="-170" y="440" width="100" height="40" as="geometry" />
        </mxCell>
        <mxCell id="WlQoKTJH4L9Nlq2DW2aS-116" value="Прочие товары" style="whiteSpace=wrap;html=1;align=center;" parent="1" vertex="1">
          <mxGeometry x="75" y="590" width="100" height="40" as="geometry" />
        </mxCell>
        <mxCell id="WlQoKTJH4L9Nlq2DW2aS-117" value="" style="endArrow=none;html=1;rounded=0;" parent="1" edge="1">
          <mxGeometry relative="1" as="geometry">
            <mxPoint x="-280" y="609.29" as="sourcePoint" />
            <mxPoint x="-180" y="610" as="targetPoint" />
          </mxGeometry>
        </mxCell>
        <mxCell id="WlQoKTJH4L9Nlq2DW2aS-118" value="1,M" style="resizable=0;html=1;whiteSpace=wrap;align=right;verticalAlign=bottom;" parent="WlQoKTJH4L9Nlq2DW2aS-117" connectable="0" vertex="1">
          <mxGeometry x="1" relative="1" as="geometry">
            <mxPoint x="-70" as="offset" />
          </mxGeometry>
        </mxCell>
        <mxCell id="WlQoKTJH4L9Nlq2DW2aS-119" value="" style="endArrow=none;html=1;rounded=0;entryX=0.5;entryY=1;entryDx=0;entryDy=0;exitX=0.5;exitY=0;exitDx=0;exitDy=0;" parent="1" source="WlQoKTJH4L9Nlq2DW2aS-113" target="WlQoKTJH4L9Nlq2DW2aS-115" edge="1">
          <mxGeometry relative="1" as="geometry">
            <mxPoint x="-230" y="610" as="sourcePoint" />
            <mxPoint x="-120" y="490" as="targetPoint" />
          </mxGeometry>
        </mxCell>
        <mxCell id="WlQoKTJH4L9Nlq2DW2aS-120" value="0,N" style="resizable=0;html=1;whiteSpace=wrap;align=right;verticalAlign=bottom;" parent="WlQoKTJH4L9Nlq2DW2aS-119" connectable="0" vertex="1">
          <mxGeometry x="1" relative="1" as="geometry">
            <mxPoint x="-10" y="21" as="offset" />
          </mxGeometry>
        </mxCell>
        <mxCell id="WlQoKTJH4L9Nlq2DW2aS-121" value="" style="endArrow=none;html=1;rounded=0;entryX=0;entryY=0.5;entryDx=0;entryDy=0;" parent="1" target="WlQoKTJH4L9Nlq2DW2aS-116" edge="1">
          <mxGeometry relative="1" as="geometry">
            <mxPoint x="-60" y="609" as="sourcePoint" />
            <mxPoint x="70" y="610" as="targetPoint" />
          </mxGeometry>
        </mxCell>
        <mxCell id="WlQoKTJH4L9Nlq2DW2aS-122" value="0,N" style="resizable=0;html=1;whiteSpace=wrap;align=right;verticalAlign=bottom;" parent="WlQoKTJH4L9Nlq2DW2aS-121" connectable="0" vertex="1">
          <mxGeometry x="1" relative="1" as="geometry">
            <mxPoint x="-5" as="offset" />
          </mxGeometry>
        </mxCell>
        <mxCell id="WlQoKTJH4L9Nlq2DW2aS-123" value="Название" style="ellipse;whiteSpace=wrap;html=1;align=center;" parent="1" vertex="1">
          <mxGeometry x="20" y="195" width="100" height="40" as="geometry" />
        </mxCell>
        <mxCell id="WlQoKTJH4L9Nlq2DW2aS-124" value="Pizza_id" style="ellipse;whiteSpace=wrap;html=1;align=center;fontStyle=4;" parent="1" vertex="1">
          <mxGeometry x="20" y="80" width="100" height="40" as="geometry" />
        </mxCell>
        <mxCell id="WlQoKTJH4L9Nlq2DW2aS-125" value="Тип теста" style="ellipse;whiteSpace=wrap;html=1;align=center;" parent="1" vertex="1">
          <mxGeometry x="20" y="315" width="100" height="40" as="geometry" />
        </mxCell>
        <mxCell id="WlQoKTJH4L9Nlq2DW2aS-126" value="Размер" style="ellipse;whiteSpace=wrap;html=1;align=center;" parent="1" vertex="1">
          <mxGeometry x="20" y="255" width="100" height="40" as="geometry" />
        </mxCell>
        <mxCell id="WlQoKTJH4L9Nlq2DW2aS-127" value="Цена" style="ellipse;whiteSpace=wrap;html=1;align=center;" parent="1" vertex="1">
          <mxGeometry x="20" y="375" width="100" height="40" as="geometry" />
        </mxCell>
        <mxCell id="WlQoKTJH4L9Nlq2DW2aS-128" value="Состав" style="ellipse;whiteSpace=wrap;html=1;align=center;" parent="1" vertex="1">
          <mxGeometry x="20" y="435" width="100" height="40" as="geometry" />
        </mxCell>
        <mxCell id="WlQoKTJH4L9Nlq2DW2aS-129" value="Фото" style="ellipse;whiteSpace=wrap;html=1;align=center;" parent="1" vertex="1">
          <mxGeometry x="20" y="495" width="100" height="40" as="geometry" />
        </mxCell>
        <mxCell id="WlQoKTJH4L9Nlq2DW2aS-130" value="Пищевая&amp;nbsp;&lt;div&gt;ценность на 100г&lt;/div&gt;" style="ellipse;whiteSpace=wrap;html=1;align=center;" parent="1" vertex="1">
          <mxGeometry x="20" y="135" width="100" height="40" as="geometry" />
        </mxCell>
        <mxCell id="WlQoKTJH4L9Nlq2DW2aS-131" value="Энерг. ценность" style="ellipse;whiteSpace=wrap;html=1;align=center;" parent="1" vertex="1">
          <mxGeometry x="210" y="10" width="100" height="40" as="geometry" />
        </mxCell>
        <mxCell id="WlQoKTJH4L9Nlq2DW2aS-132" value="Белки" style="ellipse;whiteSpace=wrap;html=1;align=center;" parent="1" vertex="1">
          <mxGeometry x="210" y="75" width="100" height="40" as="geometry" />
        </mxCell>
        <mxCell id="WlQoKTJH4L9Nlq2DW2aS-133" value="Жиры" style="ellipse;whiteSpace=wrap;html=1;align=center;" parent="1" vertex="1">
          <mxGeometry x="210" y="135" width="100" height="40" as="geometry" />
        </mxCell>
        <mxCell id="WlQoKTJH4L9Nlq2DW2aS-134" value="Углеводы" style="ellipse;whiteSpace=wrap;html=1;align=center;" parent="1" vertex="1">
          <mxGeometry x="210" y="195" width="100" height="40" as="geometry" />
        </mxCell>
        <mxCell id="WlQoKTJH4L9Nlq2DW2aS-135" value="Вес" style="ellipse;whiteSpace=wrap;html=1;align=center;" parent="1" vertex="1">
          <mxGeometry x="210" y="260" width="100" height="40" as="geometry" />
        </mxCell>
        <mxCell id="WlQoKTJH4L9Nlq2DW2aS-137" value="" style="endArrow=none;html=1;rounded=0;exitX=1;exitY=0.5;exitDx=0;exitDy=0;" parent="1" edge="1">
          <mxGeometry width="50" height="50" relative="1" as="geometry">
            <mxPoint x="160" y="30" as="sourcePoint" />
            <mxPoint x="210" y="30" as="targetPoint" />
          </mxGeometry>
        </mxCell>
        <mxCell id="WlQoKTJH4L9Nlq2DW2aS-138" value="" style="endArrow=none;html=1;rounded=0;exitX=1;exitY=0.5;exitDx=0;exitDy=0;" parent="1" edge="1">
          <mxGeometry width="50" height="50" relative="1" as="geometry">
            <mxPoint x="160" y="94.5" as="sourcePoint" />
            <mxPoint x="210" y="94.5" as="targetPoint" />
          </mxGeometry>
        </mxCell>
        <mxCell id="WlQoKTJH4L9Nlq2DW2aS-139" value="" style="endArrow=none;html=1;rounded=0;exitX=1;exitY=0.5;exitDx=0;exitDy=0;" parent="1" source="WlQoKTJH4L9Nlq2DW2aS-130" edge="1">
          <mxGeometry width="50" height="50" relative="1" as="geometry">
            <mxPoint x="120" y="150" as="sourcePoint" />
            <mxPoint x="210" y="154.5" as="targetPoint" />
          </mxGeometry>
        </mxCell>
        <mxCell id="WlQoKTJH4L9Nlq2DW2aS-140" value="" style="endArrow=none;html=1;rounded=0;exitX=1;exitY=0.5;exitDx=0;exitDy=0;" parent="1" edge="1">
          <mxGeometry width="50" height="50" relative="1" as="geometry">
            <mxPoint x="160" y="214.5" as="sourcePoint" />
            <mxPoint x="210" y="214.5" as="targetPoint" />
          </mxGeometry>
        </mxCell>
        <mxCell id="WlQoKTJH4L9Nlq2DW2aS-141" value="" style="endArrow=none;html=1;rounded=0;exitX=1;exitY=0.5;exitDx=0;exitDy=0;" parent="1" edge="1">
          <mxGeometry width="50" height="50" relative="1" as="geometry">
            <mxPoint x="160" y="280" as="sourcePoint" />
            <mxPoint x="210" y="280" as="targetPoint" />
          </mxGeometry>
        </mxCell>
        <mxCell id="WlQoKTJH4L9Nlq2DW2aS-142" value="" style="endArrow=none;html=1;rounded=0;" parent="1" edge="1">
          <mxGeometry relative="1" as="geometry">
            <mxPoint x="160" y="30" as="sourcePoint" />
            <mxPoint x="160" y="280" as="targetPoint" />
          </mxGeometry>
        </mxCell>
        <mxCell id="WlQoKTJH4L9Nlq2DW2aS-144" value="" style="endArrow=none;html=1;rounded=0;entryX=0;entryY=0.5;entryDx=0;entryDy=0;" parent="1" target="WlQoKTJH4L9Nlq2DW2aS-128" edge="1">
          <mxGeometry relative="1" as="geometry">
            <mxPoint x="-70" y="455" as="sourcePoint" />
            <mxPoint x="-20" y="455.5" as="targetPoint" />
          </mxGeometry>
        </mxCell>
        <mxCell id="WlQoKTJH4L9Nlq2DW2aS-145" value="" style="line;strokeWidth=1;rotatable=0;dashed=0;labelPosition=right;align=left;verticalAlign=middle;spacingTop=0;spacingLeft=6;points=[];portConstraint=eastwest;" parent="1" vertex="1">
          <mxGeometry x="-30" y="95" width="50" height="10" as="geometry" />
        </mxCell>
        <mxCell id="WlQoKTJH4L9Nlq2DW2aS-146" value="" style="line;strokeWidth=1;rotatable=0;dashed=0;labelPosition=right;align=left;verticalAlign=middle;spacingTop=0;spacingLeft=6;points=[];portConstraint=eastwest;" parent="1" vertex="1">
          <mxGeometry x="-30" y="150" width="50" height="10" as="geometry" />
        </mxCell>
        <mxCell id="WlQoKTJH4L9Nlq2DW2aS-147" value="" style="line;strokeWidth=1;rotatable=0;dashed=0;labelPosition=right;align=left;verticalAlign=middle;spacingTop=0;spacingLeft=6;points=[];portConstraint=eastwest;" parent="1" vertex="1">
          <mxGeometry x="-30" y="210" width="50" height="10" as="geometry" />
        </mxCell>
        <mxCell id="WlQoKTJH4L9Nlq2DW2aS-148" value="" style="line;strokeWidth=1;rotatable=0;dashed=0;labelPosition=right;align=left;verticalAlign=middle;spacingTop=0;spacingLeft=6;points=[];portConstraint=eastwest;" parent="1" vertex="1">
          <mxGeometry x="-30" y="270" width="50" height="10" as="geometry" />
        </mxCell>
        <mxCell id="WlQoKTJH4L9Nlq2DW2aS-149" value="" style="line;strokeWidth=1;rotatable=0;dashed=0;labelPosition=right;align=left;verticalAlign=middle;spacingTop=0;spacingLeft=6;points=[];portConstraint=eastwest;" parent="1" vertex="1">
          <mxGeometry x="-30" y="330" width="50" height="10" as="geometry" />
        </mxCell>
        <mxCell id="WlQoKTJH4L9Nlq2DW2aS-150" value="" style="line;strokeWidth=1;rotatable=0;dashed=0;labelPosition=right;align=left;verticalAlign=middle;spacingTop=0;spacingLeft=6;points=[];portConstraint=eastwest;" parent="1" vertex="1">
          <mxGeometry x="-30" y="390" width="50" height="10" as="geometry" />
        </mxCell>
        <mxCell id="WlQoKTJH4L9Nlq2DW2aS-151" value="" style="line;strokeWidth=1;rotatable=0;dashed=0;labelPosition=right;align=left;verticalAlign=middle;spacingTop=0;spacingLeft=6;points=[];portConstraint=eastwest;" parent="1" vertex="1">
          <mxGeometry x="-30" y="510" width="50" height="10" as="geometry" />
        </mxCell>
        <mxCell id="WlQoKTJH4L9Nlq2DW2aS-152" value="" style="endArrow=none;html=1;rounded=0;" parent="1" edge="1">
          <mxGeometry relative="1" as="geometry">
            <mxPoint x="-31" y="100" as="sourcePoint" />
            <mxPoint x="-30.80000000000001" y="515" as="targetPoint" />
          </mxGeometry>
        </mxCell>
        <mxCell id="WlQoKTJH4L9Nlq2DW2aS-153" value="Название" style="ellipse;whiteSpace=wrap;html=1;align=center;" parent="1" vertex="1">
          <mxGeometry x="431" y="410" width="100" height="40" as="geometry" />
        </mxCell>
        <mxCell id="WlQoKTJH4L9Nlq2DW2aS-154" value="Product_id" style="ellipse;whiteSpace=wrap;html=1;align=center;fontStyle=4;" parent="1" vertex="1">
          <mxGeometry x="431" y="295" width="100" height="40" as="geometry" />
        </mxCell>
        <mxCell id="WlQoKTJH4L9Nlq2DW2aS-155" value="Категория&lt;div&gt;продукта&lt;/div&gt;" style="ellipse;whiteSpace=wrap;html=1;align=center;" parent="1" vertex="1">
          <mxGeometry x="431" y="530" width="100" height="40" as="geometry" />
        </mxCell>
        <mxCell id="WlQoKTJH4L9Nlq2DW2aS-156" value="Состав" style="ellipse;whiteSpace=wrap;html=1;align=center;" parent="1" vertex="1">
          <mxGeometry x="431" y="470" width="100" height="40" as="geometry" />
        </mxCell>
        <mxCell id="WlQoKTJH4L9Nlq2DW2aS-157" value="Цена" style="ellipse;whiteSpace=wrap;html=1;align=center;" parent="1" vertex="1">
          <mxGeometry x="431" y="590" width="100" height="40" as="geometry" />
        </mxCell>
        <mxCell id="WlQoKTJH4L9Nlq2DW2aS-158" value="Фото" style="ellipse;whiteSpace=wrap;html=1;align=center;" parent="1" vertex="1">
          <mxGeometry x="431" y="645" width="100" height="40" as="geometry" />
        </mxCell>
        <mxCell id="WlQoKTJH4L9Nlq2DW2aS-160" value="Пищевая&amp;nbsp;&lt;div&gt;ценность на 100г&lt;/div&gt;" style="ellipse;whiteSpace=wrap;html=1;align=center;" parent="1" vertex="1">
          <mxGeometry x="431" y="350" width="100" height="40" as="geometry" />
        </mxCell>
        <mxCell id="WlQoKTJH4L9Nlq2DW2aS-161" value="Белки" style="ellipse;whiteSpace=wrap;html=1;align=center;" parent="1" vertex="1">
          <mxGeometry x="621" y="290" width="100" height="40" as="geometry" />
        </mxCell>
        <mxCell id="WlQoKTJH4L9Nlq2DW2aS-162" value="Жиры" style="ellipse;whiteSpace=wrap;html=1;align=center;" parent="1" vertex="1">
          <mxGeometry x="621" y="350" width="100" height="40" as="geometry" />
        </mxCell>
        <mxCell id="WlQoKTJH4L9Nlq2DW2aS-163" value="Углеводы" style="ellipse;whiteSpace=wrap;html=1;align=center;" parent="1" vertex="1">
          <mxGeometry x="621" y="410" width="100" height="40" as="geometry" />
        </mxCell>
        <mxCell id="WlQoKTJH4L9Nlq2DW2aS-164" value="Вес" style="ellipse;whiteSpace=wrap;html=1;align=center;" parent="1" vertex="1">
          <mxGeometry x="621" y="475" width="100" height="40" as="geometry" />
        </mxCell>
        <mxCell id="WlQoKTJH4L9Nlq2DW2aS-165" value="" style="endArrow=none;html=1;rounded=0;exitX=1;exitY=0.5;exitDx=0;exitDy=0;" parent="1" edge="1">
          <mxGeometry width="50" height="50" relative="1" as="geometry">
            <mxPoint x="571" y="245" as="sourcePoint" />
            <mxPoint x="621" y="245" as="targetPoint" />
          </mxGeometry>
        </mxCell>
        <mxCell id="WlQoKTJH4L9Nlq2DW2aS-166" value="" style="endArrow=none;html=1;rounded=0;exitX=1;exitY=0.5;exitDx=0;exitDy=0;" parent="1" edge="1">
          <mxGeometry width="50" height="50" relative="1" as="geometry">
            <mxPoint x="571" y="309.5" as="sourcePoint" />
            <mxPoint x="621" y="309.5" as="targetPoint" />
          </mxGeometry>
        </mxCell>
        <mxCell id="WlQoKTJH4L9Nlq2DW2aS-167" value="" style="endArrow=none;html=1;rounded=0;exitX=1;exitY=0.5;exitDx=0;exitDy=0;" parent="1" source="WlQoKTJH4L9Nlq2DW2aS-160" edge="1">
          <mxGeometry width="50" height="50" relative="1" as="geometry">
            <mxPoint x="531" y="365" as="sourcePoint" />
            <mxPoint x="621" y="369.5" as="targetPoint" />
          </mxGeometry>
        </mxCell>
        <mxCell id="WlQoKTJH4L9Nlq2DW2aS-168" value="" style="endArrow=none;html=1;rounded=0;exitX=1;exitY=0.5;exitDx=0;exitDy=0;" parent="1" edge="1">
          <mxGeometry width="50" height="50" relative="1" as="geometry">
            <mxPoint x="571" y="429.5" as="sourcePoint" />
            <mxPoint x="621" y="429.5" as="targetPoint" />
          </mxGeometry>
        </mxCell>
        <mxCell id="WlQoKTJH4L9Nlq2DW2aS-169" value="" style="endArrow=none;html=1;rounded=0;exitX=1;exitY=0.5;exitDx=0;exitDy=0;" parent="1" edge="1">
          <mxGeometry width="50" height="50" relative="1" as="geometry">
            <mxPoint x="571" y="495" as="sourcePoint" />
            <mxPoint x="621" y="495" as="targetPoint" />
          </mxGeometry>
        </mxCell>
        <mxCell id="WlQoKTJH4L9Nlq2DW2aS-170" value="" style="endArrow=none;html=1;rounded=0;" parent="1" edge="1">
          <mxGeometry relative="1" as="geometry">
            <mxPoint x="571" y="245" as="sourcePoint" />
            <mxPoint x="571" y="495" as="targetPoint" />
          </mxGeometry>
        </mxCell>
        <mxCell id="WlQoKTJH4L9Nlq2DW2aS-171" value="" style="line;strokeWidth=1;rotatable=0;dashed=0;labelPosition=right;align=left;verticalAlign=middle;spacingTop=0;spacingLeft=6;points=[];portConstraint=eastwest;" parent="1" vertex="1">
          <mxGeometry x="381" y="310" width="50" height="10" as="geometry" />
        </mxCell>
        <mxCell id="WlQoKTJH4L9Nlq2DW2aS-172" value="" style="line;strokeWidth=1;rotatable=0;dashed=0;labelPosition=right;align=left;verticalAlign=middle;spacingTop=0;spacingLeft=6;points=[];portConstraint=eastwest;" parent="1" vertex="1">
          <mxGeometry x="381" y="365" width="50" height="10" as="geometry" />
        </mxCell>
        <mxCell id="WlQoKTJH4L9Nlq2DW2aS-173" value="" style="line;strokeWidth=1;rotatable=0;dashed=0;labelPosition=right;align=left;verticalAlign=middle;spacingTop=0;spacingLeft=6;points=[];portConstraint=eastwest;" parent="1" vertex="1">
          <mxGeometry x="381" y="425" width="50" height="10" as="geometry" />
        </mxCell>
        <mxCell id="WlQoKTJH4L9Nlq2DW2aS-174" value="" style="line;strokeWidth=1;rotatable=0;dashed=0;labelPosition=right;align=left;verticalAlign=middle;spacingTop=0;spacingLeft=6;points=[];portConstraint=eastwest;" parent="1" vertex="1">
          <mxGeometry x="381" y="485" width="50" height="10" as="geometry" />
        </mxCell>
        <mxCell id="WlQoKTJH4L9Nlq2DW2aS-175" value="" style="line;strokeWidth=1;rotatable=0;dashed=0;labelPosition=right;align=left;verticalAlign=middle;spacingTop=0;spacingLeft=6;points=[];portConstraint=eastwest;" parent="1" vertex="1">
          <mxGeometry x="381" y="545" width="50" height="10" as="geometry" />
        </mxCell>
        <mxCell id="WlQoKTJH4L9Nlq2DW2aS-176" value="" style="line;strokeWidth=1;rotatable=0;dashed=0;labelPosition=right;align=left;verticalAlign=middle;spacingTop=0;spacingLeft=6;points=[];portConstraint=eastwest;" parent="1" vertex="1">
          <mxGeometry x="381" y="605" width="50" height="10" as="geometry" />
        </mxCell>
        <mxCell id="WlQoKTJH4L9Nlq2DW2aS-177" value="" style="line;strokeWidth=1;rotatable=0;dashed=0;labelPosition=right;align=left;verticalAlign=middle;spacingTop=0;spacingLeft=6;points=[];portConstraint=eastwest;" parent="1" vertex="1">
          <mxGeometry x="381" y="660" width="50" height="10" as="geometry" />
        </mxCell>
        <mxCell id="WlQoKTJH4L9Nlq2DW2aS-178" value="" style="endArrow=none;html=1;rounded=0;" parent="1" edge="1">
          <mxGeometry relative="1" as="geometry">
            <mxPoint x="380" y="315" as="sourcePoint" />
            <mxPoint x="380" y="665" as="targetPoint" />
          </mxGeometry>
        </mxCell>
        <mxCell id="WlQoKTJH4L9Nlq2DW2aS-179" value="Энерг. ценность" style="ellipse;whiteSpace=wrap;html=1;align=center;" parent="1" vertex="1">
          <mxGeometry x="621" y="225" width="100" height="40" as="geometry" />
        </mxCell>
        <mxCell id="WlQoKTJH4L9Nlq2DW2aS-180" value="" style="line;strokeWidth=1;rotatable=0;dashed=0;labelPosition=right;align=left;verticalAlign=middle;spacingTop=0;spacingLeft=6;points=[];portConstraint=eastwest;" parent="1" vertex="1">
          <mxGeometry x="175" y="604.5" width="205" height="10" as="geometry" />
        </mxCell>
      </root>
    </mxGraphModel>
  </diagram>
</mxfile>
